<svg aria-hidden="true" style="position: absolute; width: 0; height: 0; overflow: hidden;" version="1.1" xmlns="http://www.w3.org/2000/svg" xmlns:xlink="http://www.w3.org/1999/xlink">
<defs>
<symbol id="icon-area-graph" viewBox="0 0 20 20">
<path d="M20 2v16h-19.68c-0.318 0-0.416-0.209-0.216-0.465l4.469-5.748c0.199-0.256 0.553-0.283 0.789-0.062l1.419 1.334c0.235 0.221 0.572 0.178 0.747-0.096l3.047-4.74c0.175-0.273 0.509-0.312 0.741-0.090l2.171 2.096c0.232 0.225 0.559 0.18 0.724-0.1l5.133-7.785c0.166-0.282 0.406-0.344 0.656-0.344z"></path>
</symbol>
<symbol id="icon-megaphone" viewBox="0 0 20 20">
<path d="M17.223 7.030c-1.584-3.686-4.132-6.49-5.421-5.967-2.189 0.891 1.304 5.164-9.447 9.533-0.929 0.379-1.164 1.888-0.775 2.792 0.388 0.902 1.658 1.801 2.587 1.424 0.161-0.066 0.751-0.256 0.751-0.256 0.663 0.891 1.357 0.363 1.604 0.928 0.296 0.68 0.939 2.158 1.158 2.66s0.715 0.967 1.075 0.83c0.359-0.137 1.582-0.602 2.050-0.779s0.579-0.596 0.436-0.924c-0.154-0.355-0.786-0.459-0.967-0.873-0.18-0.412-0.769-1.738-0.938-2.156-0.23-0.568 0.259-1.031 0.97-1.104 4.894-0.512 5.809 2.512 7.475 1.834 1.287-0.525 1.025-4.259-0.558-7.942zM16.672 13.006c-0.287 0.115-2.213-1.402-3.443-4.267-1.231-2.863-1.076-5.48-0.79-5.597 0.286-0.115 2.165 1.717 3.395 4.58s1.124 5.167 0.838 5.284z"></path>
</symbol>
<symbol id="icon-palette" viewBox="0 0 20 20">
<path d="M15.74 2.608c-3.528-1.186-7.066-0.961-10.72 1.274-2.853 1.743-4.718 6.076-4.103 9.182 0.728 3.671 4.351 5.995 9.243 4.651 5.275-1.449 6.549-4.546 6.379-5.334s-2.665-1.652-1.718-3.498c1.188-2.313 3.129-1.149 3.982-1.622 0.855-0.472 0.539-3.442-3.063-4.653zM12.094 13.314c-0.798 0.218-1.623-0.256-1.843-1.059-0.221-0.805 0.248-1.631 1.046-1.849s1.622 0.254 1.843 1.059c0.22 0.803-0.248 1.631-1.046 1.849z"></path>
</symbol>
<symbol id="icon-price-tag" viewBox="0 0 20 20">
<path d="M19.388 0.405c-0.111-0.314-0.454-0.48-0.769-0.371s-0.481 0.455-0.372 0.77c0.929 2.67-0.915 4.664-2.321 5.732l-0.568-0.814c-0.191-0.273-0.618-0.5-0.95-0.504l-3.188 0.014c-0.332-0.006-0.825 0.146-1.097 0.338l-9.394 6.587c-0.455 0.32-0.565 0.947-0.247 1.404l4.269 6.108c0.32 0.455 0.831 0.4 1.287 0.082l9.394-6.588c0.27-0.191 0.582-0.603 0.692-0.918l0.998-3.145c0.11-0.314 0.043-0.793-0.148-1.066l-0.346-0.496c1.888-1.447 3.848-4.004 2.76-7.133zM15.017 9.763c-0.727 0.51-1.731 0.332-2.24-0.396-0.511-0.73-0.333-1.734 0.395-2.246 0.578-0.405 1.328-0.376 1.868 0.017-0.272 0.164-0.459 0.26-0.494 0.275-0.301 0.143-0.43 0.504-0.288 0.805 0.104 0.219 0.321 0.348 0.547 0.348 0.086 0 0.174-0.020 0.257-0.059 0.194-0.092 0.402-0.201 0.619-0.33 0.097 0.594-0.139 1.217-0.664 1.586z"></path>
</symbol>
<symbol id="icon-smashing" viewBox="0 0 20 20">
<path d="M10.023 16.032c-2.508 0-4.253-1.555-4.253-1.555l-1.483 3.363c1.023 0.547 2.092 0.936 2.709 1.141l-1.592 0.381c-0.746 0.178-1.496-0.283-1.675-1.029l-3.090-12.928c-0.179-0.746 0.281-1.496 1.028-1.676l3.716-0.889c-0.91 1.029-1.263 2.252-1.174 3.65 0.139 2.193 2.237 3.879 4.734 4.822 4.701 1.776 3.586 4.72 1.080 4.72zM19.361 14.594l-3.091-12.928c-0.178-0.746-0.928-1.207-1.675-1.027l-2.663 0.637c0.679 0.105 2.024 0.4 3.505 1.178l-1.159 3.213c0 0-0.965-1.078-3.553-1.209-2.46-0.125-3.828 2.537 0.969 4.105 3.674 1.201 4.848 3.516 4.787 5.658-0.031 1.113-0.421 2.018-0.872 2.701l2.725-0.652c0.746-0.178 1.206-0.928 1.027-1.676z"></path>
</symbol>
</defs>
</svg>
