<svg width="24" height="24" viewBox="0 0 24 24" fill="none" xmlns="http://www.w3.org/2000/svg">
<g clip-path="url(#clip0_485_669)">
<path d="M11.3849 15.275C12.4959 15.271 14.9249 15.262 14.8969 13.717C14.8699 12.137 12.5369 12.232 11.3999 12.279C11.2729 12.284 11.1599 12.289 11.0679 12.29L11.1199 15.277C11.1949 15.275 11.2849 15.275 11.3849 15.275Z" fill="#2E2E2E"/>
<path d="M11.2668 10.9219C12.1938 10.9209 14.2168 10.9189 14.1928 9.51391C14.1668 8.07691 12.2238 8.16191 11.2748 8.20391C11.1678 8.20891 11.0748 8.21291 10.9968 8.21391L11.0438 10.9229L11.2668 10.9219Z" fill="#2E2E2E"/>
<path fill-rule="evenodd" clip-rule="evenodd" d="M9.09592 23.641C15.5259 25.244 22.0379 21.331 23.6409 14.903C25.2439 8.47399 21.3299 1.96199 14.8999 0.359994C8.47392 -1.24401 1.96192 2.66999 0.359921 9.09999C-1.24308 15.528 2.66992 22.04 9.09692 23.642L9.09592 23.641ZM13.3779 6.62099C15.1319 6.74499 16.5279 7.25899 16.7109 8.86299C16.8469 10.037 16.3669 10.752 15.5879 11.166C16.8879 11.454 17.7129 12.209 17.5829 13.937C17.4219 16.082 15.8349 16.685 13.5569 16.855L13.5949 19.105L12.2389 19.13L12.1999 16.91C11.8489 16.916 11.4889 16.92 11.1159 16.918L11.1559 19.148L9.79992 19.172L9.75992 16.918L9.37692 16.921C9.18292 16.922 8.98692 16.923 8.79092 16.927L7.02492 16.957L7.26592 15.333C7.26592 15.333 8.26992 15.331 8.25192 15.316C8.63592 15.308 8.73292 15.031 8.75392 14.857L8.69292 11.3L8.78992 11.298H8.83592C8.78813 11.2925 8.74002 11.2902 8.69192 11.291L8.64792 8.75099C8.59092 8.47699 8.40692 8.16099 7.85792 8.17099C7.87292 8.15099 6.87192 8.18799 6.87192 8.18799L6.84592 6.73999L8.71792 6.70799V6.71499C8.99892 6.70999 9.28792 6.69999 9.58092 6.68899L9.54292 4.45999L10.8989 4.43699L10.9369 6.62099C11.2989 6.60799 11.6629 6.59399 12.0199 6.58799L11.9819 4.41799L13.3389 4.39399L13.3779 6.62299V6.62099Z" fill="#2E2E2E"/>
</g>
<defs>
<clipPath id="clip0_485_669">
<rect width="24" height="24" fill="white"/>
</clipPath>
</defs>
</svg>
