<svg width="38" height="38" viewBox="0 0 38 38" fill="none" xmlns="http://www.w3.org/2000/svg">
<g clip-path="url(#clip0_485_666)">
<path d="M1.746 7.06787C0.769779 7.06787 -0.0222168 7.8588 -0.0222168 8.83487V29.1649C-0.0222168 30.1411 0.769855 30.9319 1.746 30.9319H36.2108C37.187 30.9319 37.9778 30.1409 37.9778 29.1649V8.83487C37.9778 7.85869 37.1869 7.06787 36.2108 7.06787H1.746ZM19.9836 13.7855C20.0094 13.7849 20.0349 13.7855 20.0608 13.7855C21.7202 13.7855 23.0652 15.1303 23.0652 16.7899C23.0652 18.4496 21.7202 19.7955 20.0608 19.7955C18.4014 19.7955 17.0564 18.4496 17.0564 16.7899C17.0564 15.1562 18.36 13.8267 19.9836 13.7855ZM10.5002 13.9174C11.0959 13.9174 11.6418 14.1218 12.0974 14.5206L11.5429 15.2474C11.2666 14.9376 11.0053 14.8068 10.6879 14.8068C10.2308 14.8068 9.89818 15.0665 9.89818 15.4089C9.89818 15.7025 10.0849 15.8586 10.7211 16.094C11.9268 16.5351 12.2839 16.9262 12.2839 17.7898C12.2839 18.8422 11.5116 19.5746 10.41 19.5746C9.60356 19.5746 9.01612 19.2561 8.52782 18.5391L9.21296 17.88C9.45692 18.3522 9.86405 18.6044 10.3696 18.6044C10.8424 18.6044 11.1925 18.2789 11.1925 17.8385C11.1925 17.6102 11.0873 17.4141 10.8755 17.2756C10.7688 17.2101 10.5577 17.1121 10.1428 16.9657C9.14722 16.6072 8.80568 16.2243 8.80568 15.4754C8.80568 14.5857 9.53866 13.9174 10.5002 13.9174H10.5002ZM15.4866 13.9174C15.9426 13.9174 16.3261 14.0148 16.7916 14.2499V15.492C16.3507 15.0627 15.9674 14.8828 15.4616 14.8828C14.4675 14.8828 13.6863 15.7034 13.6863 16.7424C13.6863 17.8386 14.4439 18.6092 15.5115 18.6092C15.9921 18.6092 16.3677 18.439 16.7916 18.0166V19.2588C16.3095 19.4848 15.9181 19.5746 15.4616 19.5746C13.8474 19.5746 12.5938 18.3404 12.5938 16.7495C12.5938 15.1759 13.8806 13.9174 15.4865 13.9174H15.4866ZM2.07728 14.0064H3.64478C5.37675 14.0064 6.58386 15.1144 6.58386 16.7056C6.58386 17.499 6.21434 18.2664 5.58993 18.7754C5.06427 19.2051 4.46566 19.3977 3.6365 19.3977H2.07728V14.0064ZM7.06953 14.0064H8.08603V19.3977H7.06953V14.0064ZM22.6234 14.0064H23.7789L25.2253 17.6533L26.6906 14.0064H27.8377L25.4948 19.5746H24.9248L22.6234 14.0064ZM28.2795 14.0064H31.2839V14.9196H29.3375V16.1166H31.2126V17.0298H29.3375V18.4845H31.2839V19.3977H28.2795V14.0064ZM32.0355 14.0064H33.6102C34.8355 14.0064 35.5387 14.5883 35.5387 15.5977C35.5387 16.4232 35.098 16.9648 34.2977 17.126L36.0125 19.3977H34.705L33.2349 17.2317H33.096V19.3977H32.0355V14.0065V14.0064ZM33.1031 14.8555V16.4966H33.4107C34.0826 16.4966 34.439 16.204 34.439 15.6594C34.439 15.1322 34.0825 14.8555 33.4273 14.8555H33.1031ZM3.14486 14.9149V18.4893H3.43103C4.12187 18.4893 4.55937 18.3587 4.89521 18.0594C5.26522 17.7348 5.48661 17.2163 5.48661 16.6973C5.48661 16.1795 5.26522 15.6766 4.89521 15.3519C4.54219 15.0365 4.12184 14.9149 3.43107 14.9149H3.14486ZM37.5147 20.014C37.5147 20.014 37.5253 25.8042 37.5016 28.8478C37.4995 29.1142 37.402 29.5359 37.099 29.8869C36.7961 30.2379 36.3249 30.4021 36.0434 30.401C35.7619 30.4001 8.52778 30.401 8.52778 30.401C27.2197 27.1765 37.5147 20.014 37.5147 20.014H37.5147Z" fill="#2E2E2E"/>
</g>
<defs>
<clipPath id="clip0_485_666">
<rect width="38" height="38" fill="white"/>
</clipPath>
</defs>
</svg>
