<svg width="24" height="21" viewBox="0 0 24 21" fill="none" xmlns="http://www.w3.org/2000/svg">
<path d="M17 7C18.5913 7 20.1174 7.63214 21.2426 8.75736C22.3679 9.88258 23 11.4087 23 13V20H19V13C19 12.4696 18.7893 11.9609 18.4142 11.5858C18.0391 11.2107 17.5304 11 17 11C16.4696 11 15.9609 11.2107 15.5858 11.5858C15.2107 11.9609 15 12.4696 15 13V20H11V13C11 11.4087 11.6321 9.88258 12.7574 8.75736C13.8826 7.63214 15.4087 7 17 7Z" stroke="black" stroke-width="2" stroke-linecap="round" stroke-linejoin="round"/>
<path d="M5 8H1V20H5V8Z" stroke="black" stroke-width="2" stroke-linecap="round" stroke-linejoin="round"/>
<path d="M3 5C4.10457 5 5 4.10457 5 3C5 1.89543 4.10457 1 3 1C1.89543 1 1 1.89543 1 3C1 4.10457 1.89543 5 3 5Z" stroke="black" stroke-width="2" stroke-linecap="round" stroke-linejoin="round"/>
</svg>
