<svg width="44" height="35" viewBox="0 0 44 35" fill="none" xmlns="http://www.w3.org/2000/svg">
<path d="M7.99901 34.826V32.5095C7.99901 31.6213 7.47067 31.0423 6.56506 31.0423C6.11234 31.0423 5.62181 31.1967 5.28218 31.6987C5.01818 31.274 4.64092 31.0423 4.07493 31.0423C3.6975 31.0423 3.3204 31.158 3.01842 31.5828V31.1195H2.22607V34.826H3.01842V32.7797C3.01842 32.1234 3.35804 31.8144 3.88639 31.8144C4.41439 31.8144 4.67873 32.162 4.67873 32.7797V34.826H5.47107V32.7797C5.47107 32.1234 5.84817 31.8144 6.3387 31.8144C6.86704 31.8144 7.13104 32.162 7.13104 32.7797V34.826H7.99901ZM19.7331 31.1195H18.4504V29.9999H17.658V31.1195H16.9412V31.8529H17.6579V33.5519C17.6579 34.4014 17.9975 34.9032 18.9031 34.9032C19.2427 34.9032 19.6198 34.7875 19.8842 34.6331L19.6576 33.938C19.4313 34.0924 19.1673 34.1311 18.9786 34.1311C18.6013 34.1311 18.4504 33.8995 18.4504 33.5132V31.8529H19.7331V31.1195ZM26.4493 31.0421C25.9966 31.0421 25.6947 31.274 25.506 31.5828V31.1195H24.7137V34.826H25.506V32.7411C25.506 32.1234 25.77 31.7759 26.2606 31.7759C26.4115 31.7759 26.6002 31.8146 26.7511 31.8531L26.9775 31.081C26.8265 31.0423 26.6002 31.0423 26.4493 31.0423V31.0421ZM16.2997 31.4284C15.9223 31.158 15.3941 31.0423 14.8281 31.0423C13.9227 31.0423 13.3191 31.5056 13.3191 32.2392C13.3191 32.857 13.7718 33.2044 14.5641 33.3203L14.9414 33.359C15.3565 33.436 15.5828 33.5519 15.5828 33.7451C15.5828 34.0152 15.281 34.2083 14.7527 34.2083C14.2245 34.2083 13.8094 34.0152 13.5452 33.8223L13.168 34.44C13.5831 34.7488 14.149 34.9032 14.7149 34.9032C15.7714 34.9032 16.3752 34.4014 16.3752 33.7064C16.3752 33.05 15.8846 32.7024 15.1299 32.5867L14.7527 32.548C14.413 32.5093 14.149 32.4323 14.149 32.2007C14.149 31.9303 14.413 31.7759 14.8281 31.7759C15.281 31.7759 15.7337 31.9689 15.9601 32.0848L16.2997 31.4284ZM37.3535 31.0423C36.9007 31.0423 36.5988 31.274 36.4101 31.5828V31.1195H35.6178V34.826H36.4101V32.7411C36.4101 32.1234 36.6743 31.7759 37.1647 31.7759C37.3157 31.7759 37.5044 31.8146 37.6554 31.8531L37.8817 31.081C37.7308 31.0423 37.5045 31.0423 37.3535 31.0423ZM27.2416 32.9728C27.2416 34.0924 27.9962 34.9032 29.1659 34.9032C29.6941 34.9032 30.0714 34.7875 30.4486 34.4786L30.0714 33.8223C29.7696 34.0539 29.4677 34.1696 29.1281 34.1696C28.4867 34.1696 28.034 33.7064 28.034 32.9728C28.034 32.2779 28.4867 31.8144 29.1281 31.7759C29.4677 31.7759 29.7696 31.8916 30.0714 32.1234L30.4486 31.4671C30.0714 31.158 29.6941 31.0423 29.1659 31.0423C27.9962 31.0423 27.2416 31.8531 27.2416 32.9728ZM34.5614 32.9728V31.1195H33.7691V31.5828C33.5049 31.2354 33.1277 31.0423 32.6371 31.0423C31.6184 31.0423 30.8261 31.8531 30.8261 32.9728C30.8261 34.0924 31.6184 34.9032 32.6371 34.9032C33.1653 34.9032 33.5427 34.7103 33.7691 34.3627V34.826H34.5614V32.9728ZM31.6561 32.9728C31.6561 32.3164 32.0711 31.7759 32.7502 31.7759C33.3917 31.7759 33.8445 32.2779 33.8445 32.9728C33.8445 33.6292 33.3917 34.1696 32.7502 34.1696C32.0711 34.1309 31.6561 33.6292 31.6561 32.9728ZM22.1857 31.0423C21.1292 31.0423 20.3745 31.8144 20.3745 32.9728C20.3745 34.1311 21.1291 34.9032 22.2234 34.9032C22.7516 34.9032 23.2799 34.7488 23.695 34.4014L23.3175 33.8223C23.0157 34.0539 22.6385 34.2083 22.2612 34.2083C21.7707 34.2083 21.2801 33.9767 21.1669 33.3201H23.8459V33.0115C23.8837 31.8144 23.2045 31.0423 22.1856 31.0423H22.1857ZM22.1857 31.7372C22.6761 31.7372 23.0159 32.0462 23.0912 32.6254H21.2047C21.2801 32.1234 21.6198 31.7372 22.1857 31.7372ZM41.8434 32.9728V29.6523H41.0511V31.5828C40.7869 31.2354 40.4097 31.0423 39.9191 31.0423C38.9004 31.0423 38.1081 31.8531 38.1081 32.9728C38.1081 34.0924 38.9004 34.9032 39.9191 34.9032C40.4475 34.9032 40.8247 34.7103 41.0511 34.3627V34.826H41.8434V32.9728ZM38.9382 32.9728C38.9382 32.3164 39.3531 31.7759 40.0324 31.7759C40.6738 31.7759 41.1265 32.2779 41.1265 32.9728C41.1265 33.6292 40.6738 34.1696 40.0324 34.1696C39.3531 34.1309 38.9382 33.6292 38.9382 32.9728ZM12.4511 32.9728V31.1195H11.6587V31.5828C11.3946 31.2354 11.0173 31.0423 10.5268 31.0423C9.50807 31.0423 8.71573 31.8531 8.71573 32.9728C8.71573 34.0924 9.50807 34.9032 10.5268 34.9032C11.0551 34.9032 11.4324 34.7103 11.6587 34.3627V34.826H12.4511V32.9728ZM9.50807 32.9728C9.50807 32.3164 9.92315 31.7759 10.6022 31.7759C11.2437 31.7759 11.6966 32.2779 11.6966 32.9728C11.6966 33.6292 11.2437 34.1696 10.6022 34.1696C9.92315 34.1309 9.50807 33.6292 9.50807 32.9728Z" fill="black"/>
<path d="M16.0356 2.97314H27.9208V24.8263H16.0356V2.97314Z" fill="#2E2E2E"/>
<path d="M16.7903 13.8996C16.7903 9.4595 18.8277 5.52121 21.9593 2.97289C19.6579 1.11965 16.7527 0 13.5833 0C6.07458 0 0 6.2161 0 13.8996C0 21.5829 6.07458 27.7991 13.5831 27.7991C16.7525 27.7991 19.6577 26.6795 21.9593 24.8261C18.8277 22.3165 16.7903 18.3396 16.7903 13.8996Z" fill="#2E2E2E"/>
<path d="M43.9563 13.8996C43.9563 21.5829 37.8818 27.7991 30.3732 27.7991C27.2038 27.7991 24.2986 26.6795 21.9971 24.8261C25.1664 22.2779 27.1662 18.3396 27.1662 13.8996C27.1662 9.4595 25.1286 5.52121 21.9971 2.97289C24.2985 1.11965 27.2038 0 30.3732 0C37.8818 0 43.9565 6.2548 43.9565 13.8996H43.9563Z" fill="#727562"/>
</svg>
