<svg width="50" height="16" viewBox="0 0 50 16" fill="none" xmlns="http://www.w3.org/2000/svg">
<g opacity="0.7">
<path d="M25.8022 5.0345C25.8022 7.22328 27.7809 8.44643 29.3309 9.17387C30.8809 9.90132 31.4283 10.397 31.4217 11.0665C31.4217 12.9463 27.8403 12.9463 24.8657 11.5944L24.1401 14.9226C27.992 16.6608 35.6165 15.9269 35.6165 10.5322C35.6165 6.51515 29.9311 6.29627 29.9707 4.50018C30.0102 2.7041 33.8687 3.10323 35.6561 3.90793L36.3618 0.689132C30.9204 -1.24214 25.8088 1.10114 25.8088 5.04094" fill="#2E2E2E"/>
<path d="M46.6313 0.2837H43.1884C42.8208 0.282624 42.4612 0.388648 42.1557 0.588198C41.8502 0.787748 41.6126 1.07174 41.4735 1.40383L35.4319 15.4956H39.6597L40.5039 13.2232H45.6683L46.1696 15.4956H49.9027L46.6313 0.2837ZM41.6582 10.1074L43.782 4.39729L45.0022 10.1074H41.6582Z" fill="#2E2E2E"/>
<path d="M20.6706 0.290039L17.3398 15.4956H21.3698L24.7006 0.290039H20.6706Z" fill="#2E2E2E"/>
<path d="M14.7082 0.283691L10.5134 10.6417L8.81175 1.83514C8.74265 1.40352 8.51803 1.01013 8.17828 0.725729C7.83853 0.441329 7.40597 0.284585 6.95838 0.283691H0.0989343L0 0.727882C2.96803 1.37164 4.53779 1.84158 4.93353 3.36084L8.15219 15.4956H12.413L18.9426 0.283691H14.7082Z" fill="#2E2E2E"/>
</g>
</svg>
